<svg xmlns="http://www.w3.org/2000/svg" width="26" height="25" viewBox="0 0 26 25"><g><g><path fill="#222" d="M10.62 21.232a2.58 2.58 0 0 0-.146-.441 2.545 2.545 0 0 0-.349-.476 1.563 1.563 0 0 0-.351-.2 2.822 2.822 0 0 0-.802-.087c-.356.03-.71.1-1.05.21a2.212 2.212 0 0 0-.055.027 1.972 1.972 0 0 0-.045.119c-.007.029-.012.059-.017.089l-.01.1v.057c.001.075.007.149.016.223.036.152.084.3.146.442.11.194.244.369.4.526.191.157.401.282.63.374.21.059.426.089.645.09.153-.017.302-.047.448-.092a2.284 2.284 0 0 0 .242-.122c.034-.027.07-.053.103-.082l.033-.03a2.183 2.183 0 0 0 .07-.081 1.927 1.927 0 0 0 .046-.076l.036-.1c.007-.038.014-.076.019-.113l.007-.053v-.082a2.429 2.429 0 0 0-.016-.222zm.018.376zm-1.78-1.576l-.014.001h.015zm2.652 3.248c-.96 1.162-2.548 1.702-3.93 1.017-1.274-.63-1.864-2.215-1.56-3.592a4.467 4.467 0 0 1 .514-1.347.623.623 0 0 1-.394-.416L4.104 7.92l-.265.003c-.765.008-.58-1.073-.06-1.763l-.668-3.61-2.333.692C-.458 3.608.195 1.225 1.14.946 2.115.656 3.09.369 4.064.08c.281-.083.642.105.698.413.315 1.7.629 3.398.942 5.098l1.532-.018c5.906-.066 11.81-.132 17.716-.2.624-.006.517.903.422 1.266L22.451 17.79c-.034.128-.087.25-.155.365a2.778 2.778 0 0 1 .288.26c1.26 1.337.942 3.536-.155 4.865-.961 1.162-2.548 1.702-3.93 1.017-1.275-.63-1.865-2.215-1.56-3.592a4.47 4.47 0 0 1 .765-1.734l-5.526.197c.616 1.311.242 3.01-.668 4.112zm10.029-2.048a2.57 2.57 0 0 0-.146-.442 2.549 2.549 0 0 0-.348-.475 1.56 1.56 0 0 0-.352-.2 2.823 2.823 0 0 0-.803-.087c-.355.03-.71.1-1.05.21a2.208 2.208 0 0 0-.055.026 1.968 1.968 0 0 0-.045.118l-.016.09-.01.1a1.597 1.597 0 0 0 .015.28c.036.152.085.3.147.443.11.194.243.369.399.526.191.156.402.282.63.373.211.06.427.09.646.09.152-.016.301-.046.448-.091a2.289 2.289 0 0 0 .241-.122c.035-.027.07-.053.104-.082l.033-.03a2.248 2.248 0 0 0 .07-.081 1.88 1.88 0 0 0 .046-.077l.035-.1a2.302 2.302 0 0 0 .026-.165c.001-.028.002-.055.001-.082a2.444 2.444 0 0 0-.016-.222zm.018.376zm-1.78-1.576l-.015.001h.015zM6.131 7.898l1.688 9.134 13.238-.472 2.322-8.856-1.823.02-15.425.174z"/></g></g></svg>